# xmcd CD database file
#
# Track frame offsets:
#	150
#	14550
#	28387
#	44525
#	64375
#	74812
#	90900
#	103425
#	116775
#	134962
#	147825
#	166275
#	182155
#	196225
#	210325
#	222475
#
# Disc length: 3104 seconds
#
# Revision: 0
# Processed by: cddbd v1.5.1PL0 Copyright (c) Steve Scherf et al.
# Submitted via: CDex 1.51
#
DISCID=0a0c1e10
DTITLE=Various Artist - Australian Country Music Vol 1
DYEAR=1990
DGENRE=Country
TTITLE0=Indian Pacific - Owen Blundell
TTITLE1=Smoky's Song - Tony Taunton
TTITLE2=Boko - Stan Coster
TTITLE3=Cootamundra Wattle - Evelyn Bury
TTITLE4=Sittin' By The Campfire - Kikkatinnalong
TTITLE5=Women Of The Outback - John Mc Sweeney
TTITLE6=Bush Bride - Clair Hayes
TTITLE7=I Hate Trolleys - Vic Lanyon
TTITLE8=Up The Putty Road - Don Morrison
TTITLE9=You're Gotta Learn To Dance - Deniese Morrison
TTITLE10=Two Old Ladies Dancing - Luhrs and Crawford
TTITLE11=The Only Time A Fisherman Tells The Truth  - Rod Odgers
TTITLE12=Call Of THe Bellbird - Barry Thornton
TTITLE13=Forever Mine - Janine Vaughan
TTITLE14=Jake's Billy - Jim Humberstone
TTITLE15=I've Got A Yodel In My Heart - Kathryn Pitt
EXTD=YEAR: 1990
EXTT0=
EXTT1=
EXTT2=
EXTT3=
EXTT4=
EXTT5=
EXTT6=
EXTT7=
EXTT8=
EXTT9=
EXTT10=
EXTT11=
EXTT12=
EXTT13=
EXTT14=
EXTT15=
PLAYORDER=
